<mxfile host="app.diagrams.net" modified="2021-08-09T10:04:02.507Z" agent="5.0 (Macintosh)" etag="VU4Tgt1Zuidfyk2R1KqG" version="14.9.3" type="github">
  <diagram id="bVMx2vy2ZX0_YjoEcBE9" name="Page-1">
    <mxGraphModel dx="1186" dy="661" grid="1" gridSize="10" guides="1" tooltips="1" connect="1" arrows="1" fold="1" page="1" pageScale="1" pageWidth="827" pageHeight="1169" math="0" shadow="0">
      <root>
        <mxCell id="0" />
        <mxCell id="1" parent="0" />
        <mxCell id="V8sUl9mfiPNBY8zqdDux-2" style="edgeStyle=orthogonalEdgeStyle;rounded=0;orthogonalLoop=1;jettySize=auto;html=1;" edge="1" parent="1" source="V8sUl9mfiPNBY8zqdDux-1">
          <mxGeometry relative="1" as="geometry">
            <mxPoint x="200" y="90" as="targetPoint" />
          </mxGeometry>
        </mxCell>
        <mxCell id="V8sUl9mfiPNBY8zqdDux-1" value="Batch" style="rounded=0;whiteSpace=wrap;html=1;" vertex="1" parent="1">
          <mxGeometry x="140" y="130" width="120" height="150" as="geometry" />
        </mxCell>
        <mxCell id="V8sUl9mfiPNBY8zqdDux-3" value="DB" style="shape=cylinder3;whiteSpace=wrap;html=1;boundedLbl=1;backgroundOutline=1;size=15;" vertex="1" parent="1">
          <mxGeometry x="170" y="330" width="60" height="80" as="geometry" />
        </mxCell>
        <mxCell id="V8sUl9mfiPNBY8zqdDux-6" value="" style="endArrow=classic;startArrow=classic;html=1;entryX=0.5;entryY=1;entryDx=0;entryDy=0;" edge="1" parent="1" target="V8sUl9mfiPNBY8zqdDux-1">
          <mxGeometry width="50" height="50" relative="1" as="geometry">
            <mxPoint x="200" y="340" as="sourcePoint" />
            <mxPoint x="260" y="290" as="targetPoint" />
            <Array as="points">
              <mxPoint x="190" y="310" />
            </Array>
          </mxGeometry>
        </mxCell>
        <mxCell id="V8sUl9mfiPNBY8zqdDux-10" style="edgeStyle=orthogonalEdgeStyle;rounded=0;orthogonalLoop=1;jettySize=auto;html=1;" edge="1" parent="1" source="V8sUl9mfiPNBY8zqdDux-8">
          <mxGeometry relative="1" as="geometry">
            <mxPoint x="450" y="90" as="targetPoint" />
            <Array as="points">
              <mxPoint x="450" y="100" />
              <mxPoint x="450" y="100" />
            </Array>
          </mxGeometry>
        </mxCell>
        <mxCell id="V8sUl9mfiPNBY8zqdDux-8" value="BFF" style="rounded=0;whiteSpace=wrap;html=1;" vertex="1" parent="1">
          <mxGeometry x="390" y="130" width="120" height="150" as="geometry" />
        </mxCell>
        <mxCell id="V8sUl9mfiPNBY8zqdDux-11" style="edgeStyle=orthogonalEdgeStyle;rounded=0;orthogonalLoop=1;jettySize=auto;html=1;" edge="1" parent="1" source="V8sUl9mfiPNBY8zqdDux-9">
          <mxGeometry relative="1" as="geometry">
            <mxPoint x="665" y="90" as="targetPoint" />
          </mxGeometry>
        </mxCell>
        <mxCell id="V8sUl9mfiPNBY8zqdDux-9" value="FRontend" style="rounded=0;whiteSpace=wrap;html=1;" vertex="1" parent="1">
          <mxGeometry x="620" y="120" width="90" height="150" as="geometry" />
        </mxCell>
        <mxCell id="V8sUl9mfiPNBY8zqdDux-12" value="Port" style="triangle;whiteSpace=wrap;html=1;rotation=-90;" vertex="1" parent="1">
          <mxGeometry x="170" y="20" width="60" height="80" as="geometry" />
        </mxCell>
        <mxCell id="V8sUl9mfiPNBY8zqdDux-13" value="Port" style="triangle;whiteSpace=wrap;html=1;rotation=-90;" vertex="1" parent="1">
          <mxGeometry x="414" y="20" width="60" height="80" as="geometry" />
        </mxCell>
        <mxCell id="V8sUl9mfiPNBY8zqdDux-14" value="Port" style="triangle;whiteSpace=wrap;html=1;rotation=-90;" vertex="1" parent="1">
          <mxGeometry x="635" y="20" width="60" height="80" as="geometry" />
        </mxCell>
        <mxCell id="V8sUl9mfiPNBY8zqdDux-19" value="" style="endArrow=none;html=1;entryX=0.5;entryY=0;entryDx=0;entryDy=0;" edge="1" parent="1" source="V8sUl9mfiPNBY8zqdDux-12" target="V8sUl9mfiPNBY8zqdDux-13">
          <mxGeometry width="50" height="50" relative="1" as="geometry">
            <mxPoint x="390" y="390" as="sourcePoint" />
            <mxPoint x="440" y="340" as="targetPoint" />
            <Array as="points" />
          </mxGeometry>
        </mxCell>
        <mxCell id="V8sUl9mfiPNBY8zqdDux-20" value="" style="endArrow=none;html=1;exitX=0.5;exitY=1;exitDx=0;exitDy=0;" edge="1" parent="1" source="V8sUl9mfiPNBY8zqdDux-13">
          <mxGeometry width="50" height="50" relative="1" as="geometry">
            <mxPoint x="474" y="59.5" as="sourcePoint" />
            <mxPoint x="650" y="60" as="targetPoint" />
            <Array as="points" />
          </mxGeometry>
        </mxCell>
        <mxCell id="V8sUl9mfiPNBY8zqdDux-22" style="edgeStyle=orthogonalEdgeStyle;rounded=0;orthogonalLoop=1;jettySize=auto;html=1;entryX=-0.017;entryY=0.447;entryDx=0;entryDy=0;entryPerimeter=0;" edge="1" parent="1" source="V8sUl9mfiPNBY8zqdDux-21" target="V8sUl9mfiPNBY8zqdDux-1">
          <mxGeometry relative="1" as="geometry" />
        </mxCell>
        <mxCell id="V8sUl9mfiPNBY8zqdDux-21" value="" style="shape=note;whiteSpace=wrap;html=1;backgroundOutline=1;darkOpacity=0.05;" vertex="1" parent="1">
          <mxGeometry x="20" y="280" width="80" height="100" as="geometry" />
        </mxCell>
        <mxCell id="V8sUl9mfiPNBY8zqdDux-23" value="" style="shape=note;whiteSpace=wrap;html=1;backgroundOutline=1;darkOpacity=0.05;" vertex="1" parent="1">
          <mxGeometry x="30" y="290" width="80" height="100" as="geometry" />
        </mxCell>
        <mxCell id="V8sUl9mfiPNBY8zqdDux-24" value="" style="shape=note;whiteSpace=wrap;html=1;backgroundOutline=1;darkOpacity=0.05;" vertex="1" parent="1">
          <mxGeometry x="40" y="300" width="80" height="100" as="geometry" />
        </mxCell>
        <mxCell id="V8sUl9mfiPNBY8zqdDux-25" value="File store" style="shape=note;whiteSpace=wrap;html=1;backgroundOutline=1;darkOpacity=0.05;" vertex="1" parent="1">
          <mxGeometry x="50" y="310" width="80" height="100" as="geometry" />
        </mxCell>
        <mxCell id="V8sUl9mfiPNBY8zqdDux-26" value="DB" style="shape=cylinder3;whiteSpace=wrap;html=1;boundedLbl=1;backgroundOutline=1;size=15;" vertex="1" parent="1">
          <mxGeometry x="420" y="320" width="60" height="90" as="geometry" />
        </mxCell>
        <mxCell id="V8sUl9mfiPNBY8zqdDux-28" value="" style="endArrow=classic;startArrow=classic;html=1;entryX=0.5;entryY=1;entryDx=0;entryDy=0;" edge="1" parent="1" source="V8sUl9mfiPNBY8zqdDux-26" target="V8sUl9mfiPNBY8zqdDux-8">
          <mxGeometry width="50" height="50" relative="1" as="geometry">
            <mxPoint x="210" y="350" as="sourcePoint" />
            <mxPoint x="210" y="290" as="targetPoint" />
            <Array as="points">
              <mxPoint x="430" y="320" />
              <mxPoint x="460" y="300" />
            </Array>
          </mxGeometry>
        </mxCell>
      </root>
    </mxGraphModel>
  </diagram>
</mxfile>
